<?xml version="1.0" encoding="UTF-8"?>
<svg id="Ebene_1" xmlns="http://www.w3.org/2000/svg" version="1.1" viewBox="0 0 80 80">
  <!-- Generator: Adobe Illustrator 29.4.0, SVG Export Plug-In . SVG Version: 2.1.0 Build 152)  -->
  <defs>
    <style>
      .st0 {
        fill: #fff;
      }

      .st1 {
        fill: #333;
      }
    </style>
  </defs>
  <circle class="st0" cx="40" cy="40.5" r="36"/>
  <g id="Capa_1-2">
    <g>
      <path class="st1" d="M36,50.3h0v-23.2h-5v11.8h0v10.3c0,.2,0,.3-.1.3-.6.9-2.2,1-3.1,1.4-.9.4-1.6,1.1-1.8,2.1-.3,1.5.2,3.1.6,4.6.8,2.5,1.4,4.9,2.4,7.3.7,1.7,1.6,3.3,2.8,4.6.7.8,2.9,3.2,4.1,2.1.3-.3.3-.7.3-1.1-.2-6.8-.2-13.4-.2-20.2Z"/>
      <path class="st1" d="M56,63.9c-.1,0-.1.2,0,.2s.1-.2,0-.2Z"/>
      <path class="st1" d="M43.6,9.9v11.4c0,.3-.2.5-.5.5-.3,0-.5-.2-.5-.5v-11.4h-.9v11.4c0,.3-.2.5-.5.5-.3,0-.5-.2-.5-.5v-11.4h-.9v11.4c0,.3-.2.5-.5.5-.3,0-.5-.2-.5-.5v-11.4h-.9l-.9,11.3c0,2.2.2,3.9.7,5.1.7,1.6,1,3.2,1,4.9v19.1h5v-19.1c0-1.7.4-3.4,1-4.9.5-1.2.7-2.9.7-5.1l-.9-11.3h-.9Z"/>
    </g>
  </g>
</svg>