<?xml version="1.0" encoding="UTF-8"?>
<svg id="Ebene_1" xmlns="http://www.w3.org/2000/svg" version="1.1" viewBox="0 0 24 24">
  <!-- Generator: Adobe Illustrator 29.4.0, SVG Export Plug-In . SVG Version: 2.1.0 Build 152)  -->
  <defs>
    <style>
      .st0 {
        fill: #333;
      }
    </style>
  </defs>
  <path class="st0" d="M6.6,21c-.5,0-.9-.2-1.3-.5s-.5-.8-.5-1.3v-10.8c0-.5.2-.9.5-1.3s.8-.5,1.3-.5h1.8c0-1,.4-1.8,1.1-2.5s1.6-1.1,2.5-1.1,1.8.4,2.5,1.1,1.1,1.6,1.1,2.5h1.8c.5,0,.9.2,1.3.5s.5.8.5,1.3v10.8c0,.5-.2.9-.5,1.3s-.8.5-1.3.5H6.6ZM10.2,6.6h3.6c0-.5-.2-.9-.5-1.3s-.8-.5-1.3-.5-.9.2-1.3.5-.5.8-.5,1.3ZM14.7,11.1c.3,0,.5,0,.6-.3s.3-.4.3-.6v-1.8h-1.8v1.8c0,.3,0,.5.3.6s.4.3.6.3ZM9.3,11.1c.3,0,.5,0,.6-.3s.3-.4.3-.6v-1.8h-1.8v1.8c0,.3,0,.5.3.6s.4.3.6.3Z"/>
</svg>